<mxfile host="app.diagrams.net" agent="Mozilla/5.0 (X11; Linux x86_64; rv:128.0) Gecko/20100101 Firefox/128.0" version="24.7.6">
  <diagram name="Page-1" id="2YBvvXClWsGukQMizWep">
    <mxGraphModel dx="794" dy="1119" grid="1" gridSize="10" guides="1" tooltips="1" connect="1" arrows="1" fold="1" page="1" pageScale="1" pageWidth="850" pageHeight="1100" math="0" shadow="0">
      <root>
        <mxCell id="0" />
        <mxCell id="1" parent="0" />
        <mxCell id="aM9ryv3xv72pqoxQDRHE-5" value="Bob" style="shape=umlLifeline;perimeter=lifelinePerimeter;whiteSpace=wrap;html=1;container=0;dropTarget=0;collapsible=0;recursiveResize=0;outlineConnect=0;portConstraint=eastwest;newEdgeStyle={&quot;edgeStyle&quot;:&quot;elbowEdgeStyle&quot;,&quot;elbow&quot;:&quot;vertical&quot;,&quot;curved&quot;:0,&quot;rounded&quot;:0};points=[[0.5,0.35,0,0,0],[0.5,0.8,0,0,0]];fillColor=#dae8fc;strokeColor=#6c8ebf;" parent="1" vertex="1">
          <mxGeometry x="230" y="40" width="100" height="300" as="geometry" />
        </mxCell>
        <mxCell id="-l6yrs5uClqqt1_GIO8O-1" value="Alice" style="shape=umlLifeline;perimeter=lifelinePerimeter;whiteSpace=wrap;html=1;container=0;dropTarget=0;collapsible=0;recursiveResize=0;outlineConnect=0;portConstraint=eastwest;newEdgeStyle={&quot;edgeStyle&quot;:&quot;elbowEdgeStyle&quot;,&quot;elbow&quot;:&quot;vertical&quot;,&quot;curved&quot;:0,&quot;rounded&quot;:0};points=[[0.49,0.3,0,0,0],[0.5,0.7,0,0,0]];fillColor=#f8cecc;strokeColor=#b85450;" parent="1" vertex="1">
          <mxGeometry x="40" y="40" width="100" height="300" as="geometry" />
        </mxCell>
        <mxCell id="YyohquPobj0vO8kDmNYr-1" value="&lt;font color=&quot;#ff0000&quot;&gt;Animals:&lt;/font&gt;&lt;br&gt;&lt;font color=&quot;#26a269&quot;&gt;Colors:&lt;/font&gt;" style="rounded=0;whiteSpace=wrap;html=1;align=left;" parent="1" vertex="1">
          <mxGeometry x="20" y="140" width="60" height="40" as="geometry" />
        </mxCell>
        <mxCell id="YyohquPobj0vO8kDmNYr-3" value="synchronize" style="endArrow=classic;html=1;rounded=0;exitX=0.49;exitY=0.3;exitDx=0;exitDy=0;exitPerimeter=0;startArrow=classic;startFill=1;endFill=1;verticalAlign=bottom;" parent="1" source="-l6yrs5uClqqt1_GIO8O-1" target="KpnmySMZDJkxO5YWvR8p-1" edge="1">
          <mxGeometry relative="1" as="geometry">
            <mxPoint x="100" y="240" as="sourcePoint" />
            <mxPoint x="260" y="240" as="targetPoint" />
          </mxGeometry>
        </mxCell>
        <mxCell id="YyohquPobj0vO8kDmNYr-10" value="&lt;font color=&quot;#ff0000&quot;&gt;Animals:&lt;/font&gt;" style="rounded=0;whiteSpace=wrap;html=1;align=left;" parent="1" vertex="1">
          <mxGeometry x="20" y="90" width="60" height="20" as="geometry" />
        </mxCell>
        <mxCell id="YyohquPobj0vO8kDmNYr-11" value="&lt;font color=&quot;#0000ff&quot;&gt;Bands:&lt;/font&gt;" style="rounded=0;whiteSpace=wrap;html=1;align=left;" parent="1" vertex="1">
          <mxGeometry x="220" y="90" width="50" height="20" as="geometry" />
        </mxCell>
        <mxCell id="KpnmySMZDJkxO5YWvR8p-1" value="Carol" style="shape=umlLifeline;perimeter=lifelinePerimeter;whiteSpace=wrap;html=1;container=0;dropTarget=0;collapsible=0;recursiveResize=0;outlineConnect=0;portConstraint=eastwest;newEdgeStyle={&quot;edgeStyle&quot;:&quot;elbowEdgeStyle&quot;,&quot;elbow&quot;:&quot;vertical&quot;,&quot;curved&quot;:0,&quot;rounded&quot;:0};points=[[0.5,0.35,0,0,0],[0.5,0.8,0,0,0]];fillColor=#d5e8d4;strokeColor=#82b366;" parent="1" vertex="1">
          <mxGeometry x="440" y="40" width="100" height="300" as="geometry" />
        </mxCell>
        <mxCell id="KpnmySMZDJkxO5YWvR8p-2" value="&lt;font color=&quot;#26a269&quot;&gt;Colors:&lt;/font&gt;" style="rounded=0;whiteSpace=wrap;html=1;align=left;" parent="1" vertex="1">
          <mxGeometry x="430" y="90" width="50" height="20" as="geometry" />
        </mxCell>
        <mxCell id="KpnmySMZDJkxO5YWvR8p-3" value="&lt;font color=&quot;#ff0000&quot;&gt;Animals:&lt;/font&gt;&lt;br&gt;&lt;font color=&quot;#26a269&quot;&gt;Colors:&lt;/font&gt;" style="rounded=0;whiteSpace=wrap;html=1;align=left;" parent="1" vertex="1">
          <mxGeometry x="420" y="140" width="60" height="40" as="geometry" />
        </mxCell>
        <mxCell id="KpnmySMZDJkxO5YWvR8p-4" value="&lt;div&gt;&lt;font color=&quot;#ff0000&quot;&gt;Animals:&lt;/font&gt;&lt;/div&gt;&lt;div&gt;&lt;font color=&quot;#ff0000&quot;&gt;* Alpacas&lt;/font&gt;&lt;br&gt;&lt;/div&gt;&lt;font color=&quot;#26a269&quot;&gt;Colors:&lt;/font&gt;" style="rounded=0;whiteSpace=wrap;html=1;align=left;" parent="1" vertex="1">
          <mxGeometry x="20" y="190" width="60" height="50" as="geometry" />
        </mxCell>
        <mxCell id="KpnmySMZDJkxO5YWvR8p-5" value="synchronize" style="endArrow=classic;html=1;rounded=0;startArrow=classic;startFill=1;endFill=1;verticalAlign=bottom;exitX=0.5;exitY=0.7;exitDx=0;exitDy=0;exitPerimeter=0;" parent="1" source="-l6yrs5uClqqt1_GIO8O-1" target="aM9ryv3xv72pqoxQDRHE-5" edge="1">
          <mxGeometry x="-0.0019" relative="1" as="geometry">
            <mxPoint x="90" y="280" as="sourcePoint" />
            <mxPoint x="490" y="290" as="targetPoint" />
            <mxPoint as="offset" />
          </mxGeometry>
        </mxCell>
        <mxCell id="KpnmySMZDJkxO5YWvR8p-6" value="&lt;div&gt;&lt;font color=&quot;#ff0000&quot;&gt;Animals:&lt;/font&gt;&lt;/div&gt;&lt;div&gt;&lt;font color=&quot;#ff0000&quot;&gt;* Alpacas&lt;/font&gt;&lt;/div&gt;&lt;div&gt;&lt;font color=&quot;#0000ff&quot;&gt;Bands:&lt;/font&gt;&lt;br&gt;&lt;/div&gt;&lt;div&gt;&lt;font color=&quot;#26a269&quot;&gt;Colors:&lt;/font&gt;&lt;/div&gt;" style="rounded=0;whiteSpace=wrap;html=1;align=left;" parent="1" vertex="1">
          <mxGeometry x="20" y="260" width="60" height="60" as="geometry" />
        </mxCell>
        <mxCell id="KpnmySMZDJkxO5YWvR8p-7" value="&lt;div&gt;&lt;font color=&quot;#ff0000&quot;&gt;Animals:&lt;/font&gt;&lt;/div&gt;&lt;div&gt;&lt;font color=&quot;#ff0000&quot;&gt;* Alpacas&lt;/font&gt;&lt;/div&gt;&lt;div&gt;&lt;font color=&quot;#0000ff&quot;&gt;Bands:&lt;/font&gt;&lt;br&gt;&lt;/div&gt;&lt;div&gt;&lt;font color=&quot;#26a269&quot;&gt;Colors:&lt;/font&gt;&lt;/div&gt;" style="rounded=0;whiteSpace=wrap;html=1;align=left;" parent="1" vertex="1">
          <mxGeometry x="210" y="260" width="60" height="60" as="geometry" />
        </mxCell>
      </root>
    </mxGraphModel>
  </diagram>
</mxfile>
